<svg width="200" height="49" viewBox="0 0 200 49" fill="none" xmlns="http://www.w3.org/2000/svg">
<path d="M54.2788 22.284C52.8689 20.8735 51.2258 19.7669 49.396 18.9919C47.4979 18.1897 45.4855 17.7828 43.4118 17.7828H15.3681C13.2951 17.7828 11.2821 18.1891 9.3852 18.9919C7.5548 19.7663 5.91169 20.8735 4.50179 22.284C3.0913 23.6939 1.9847 25.337 1.20966 27.1674C0.40754 29.0643 0 31.0779 0 33.1497C0 35.224 0.406362 37.2357 1.20966 39.1327C1.98411 40.9631 3.0913 42.605 4.50179 44.0167C5.91169 45.4266 7.5548 46.5332 9.3852 47.3076C11.2827 48.1092 13.2951 48.5179 15.3681 48.5179C17.791 48.5179 20.2056 47.939 22.3517 46.8412C23.7928 46.105 25.1197 45.1333 26.2651 43.9825H32.5137C33.6597 45.1333 34.9872 46.105 36.4277 46.8412C38.5744 47.9384 40.989 48.5179 43.4107 48.5179C45.4843 48.5179 47.4967 48.1104 49.3942 47.3076C51.224 46.5338 52.8665 45.4266 54.2764 44.0167C55.6869 42.6056 56.7947 40.9631 57.5686 39.1327C58.3707 37.2357 58.7776 35.2234 58.7776 33.1497C58.7776 31.0767 58.3719 29.0643 57.5686 27.1674C56.7965 25.3376 55.6893 23.6945 54.2788 22.284ZM43.4118 44.4878C39.7039 44.4878 36.4106 42.7063 34.3423 39.9525H24.4377C22.3694 42.7063 19.0766 44.4878 15.3681 44.4878C9.10722 44.4878 4.03182 39.413 4.03182 33.1509C4.03182 26.89 9.10781 21.814 15.3681 21.814H43.4118C49.674 21.814 54.7499 26.89 54.7499 33.1509C54.7488 39.4124 49.674 44.4878 43.4118 44.4878Z" fill="#646978"/>
<path d="M43.4118 39.9519C44.6637 39.9519 45.6786 38.937 45.6786 37.6851C45.6786 36.4332 44.6637 35.4183 43.4118 35.4183C42.1599 35.4183 41.145 36.4332 41.145 37.6851C41.145 38.937 42.1599 39.9519 43.4118 39.9519Z" fill="#646978"/>
<path d="M47.9473 35.4177C49.1996 35.4177 50.2147 34.4026 50.2147 33.1503C50.2147 31.8981 49.1996 30.8829 47.9473 30.8829C46.6951 30.8829 45.6799 31.8981 45.6799 33.1503C45.6799 34.4026 46.6951 35.4177 47.9473 35.4177Z" fill="#646978"/>
<path d="M38.8782 35.4177C40.1305 35.4177 41.1456 34.4026 41.1456 33.1503C41.1456 31.8981 40.1305 30.8829 38.8782 30.8829C37.626 30.8829 36.6108 31.8981 36.6108 33.1503C36.6108 34.4026 37.626 35.4177 38.8782 35.4177Z" fill="#646978"/>
<path d="M43.4118 30.8829C44.6637 30.8829 45.6786 29.868 45.6786 28.6161C45.6786 27.3642 44.6637 26.3493 43.4118 26.3493C42.1599 26.3493 41.145 27.3642 41.145 28.6161C41.145 29.868 42.1599 30.8829 43.4118 30.8829Z" fill="#646978"/>
<path d="M21.0367 30.883H17.6356V27.4831C17.6356 26.8576 17.128 26.3494 16.5025 26.3494H14.2352C13.6091 26.3494 13.1015 26.857 13.1015 27.4831V30.883H9.70097C9.07494 30.883 8.56787 31.3906 8.56787 32.0172V34.2846C8.56787 34.9107 9.07553 35.4189 9.70097 35.4189H13.1015V38.8188C13.1015 39.4454 13.6091 39.9525 14.2352 39.9525H16.5025C17.1286 39.9525 17.6356 39.446 17.6356 38.8188V35.4189H21.0367C21.6627 35.4189 22.1704 34.9112 22.1704 34.2846V32.0172C22.1704 31.3906 21.6622 30.883 21.0367 30.883Z" fill="#646978"/>
<path d="M37.7222 10.3469H48.5461C54.2511 10.3469 58.893 5.70556 58.893 0H54.8618C54.8618 3.48294 52.0279 6.31628 48.5455 6.31628H37.7222C32.0166 6.31628 27.3752 10.9576 27.3752 16.6632H31.4059C31.4053 13.1809 34.2398 10.3469 37.7222 10.3469Z" fill="#646978"/>
<path d="M80.6798 32.5165C82.5309 32.5165 84.2617 32.0838 85.8724 31.2184V25.8816H80.9683C80.6317 25.8816 80.3433 25.7614 80.1029 25.521C79.8865 25.2806 79.7783 24.9921 79.7783 24.6556C79.7783 24.319 79.8985 24.0306 80.1389 23.7902C80.3793 23.5498 80.6558 23.4296 80.9683 23.4296H86.8099C87.1945 23.4296 87.5191 23.5738 87.7835 23.8623C88.072 24.1267 88.2162 24.4633 88.2162 24.872V31.5429C88.2162 31.9756 88.108 32.3603 87.8917 32.6968C87.6994 33.0093 87.4349 33.2377 87.0984 33.3819C84.8867 34.4878 82.639 35.0407 80.3553 35.0407C77.2542 35.0407 74.7541 34.055 72.855 32.0838C70.9558 30.1126 69.9943 27.5764 69.9702 24.4753C69.9702 21.3502 70.9679 18.7659 72.9631 16.7226C74.8623 14.7994 77.2902 13.8378 80.2471 13.8378C81.9299 13.8378 83.3482 14.0422 84.5021 14.4508C85.656 14.8595 86.6897 15.3643 87.6032 15.9653C87.9878 16.1817 88.1801 16.4942 88.1801 16.9029C88.1801 17.3115 88.072 17.6361 87.8556 17.8765C87.6633 18.1168 87.4109 18.237 87.0984 18.237C86.7859 18.237 86.5334 18.189 86.3411 18.0928C84.442 16.987 82.5068 16.4341 80.5356 16.4341C78.2518 16.4341 76.3767 17.1312 74.9103 18.5255C73.3958 19.9919 72.6506 21.9752 72.6747 24.4753C72.6747 26.8071 73.3718 28.7183 74.7661 30.2087C76.2325 31.7473 78.2037 32.5165 80.6798 32.5165ZM93.1563 20.4367C94.815 19.7155 96.5339 19.3669 98.3128 19.3909C100.308 19.3909 101.859 20.004 102.964 21.23C103.95 22.2877 104.455 23.6099 104.479 25.1965V33.5622C104.479 33.9228 104.335 34.2353 104.046 34.4998C103.782 34.7642 103.457 34.8964 103.073 34.8964C102.712 34.8964 102.4 34.7642 102.135 34.4998C101.871 34.2353 101.738 33.9228 101.738 33.5622V32.805C101.21 33.3579 100.5 33.8747 99.6109 34.3555C98.7215 34.8123 97.5916 35.0407 96.2214 35.0407C94.8511 35.0407 93.7092 34.644 92.7957 33.8507C91.8582 33.0334 91.3894 31.9636 91.3894 30.6414C91.3894 29.175 91.9423 28.0211 93.0481 27.1797C94.2501 26.2662 95.9569 25.8215 98.1686 25.8456H101.738V25.5931C101.738 24.271 101.414 23.3334 100.765 22.7805C100.14 22.2276 99.1542 21.9512 97.808 21.9512C96.6781 21.9512 95.368 22.1795 93.8775 22.6363C93.7333 22.6844 93.553 22.7084 93.3366 22.7084C93.1443 22.7084 92.94 22.6122 92.7236 22.4199C92.5073 22.2036 92.3871 21.879 92.363 21.4463C92.363 20.9896 92.6275 20.653 93.1563 20.4367ZM94.0939 30.3169C94.0939 31.9035 95.1396 32.6848 97.231 32.6608C98.1445 32.6608 98.9979 32.4444 99.7912 32.0117C100.609 31.5549 101.258 31.0501 101.738 30.4972V28.0091H98.5652C97.1709 28.0091 96.0771 28.1894 95.2838 28.55C94.4905 28.8866 94.0939 29.4755 94.0939 30.3169ZM111.655 20.9054V22.1314C112.857 20.3285 114.527 19.415 116.667 19.3909C117.725 19.3909 118.698 19.7035 119.588 20.3285C120.309 20.8333 120.85 21.5305 121.21 22.4199C121.763 21.5545 122.304 20.9535 122.833 20.617C123.939 19.7996 125.201 19.3909 126.619 19.3909C128.206 19.3909 129.456 20.004 130.369 21.23C131.163 22.2637 131.559 23.5378 131.559 25.0522V33.5622C131.559 33.9228 131.427 34.2353 131.163 34.4998C130.922 34.7642 130.61 34.8964 130.225 34.8964C129.865 34.8964 129.552 34.7642 129.288 34.4998C129.023 34.2353 128.891 33.9228 128.891 33.5622V25.5931C128.891 24.3431 128.663 23.4176 128.206 22.8166C127.773 22.1915 127.004 21.879 125.898 21.879C124.167 21.879 122.737 22.8286 121.607 24.7277V33.5622C121.607 33.9228 121.475 34.2353 121.21 34.4998C120.97 34.7642 120.658 34.8964 120.273 34.8964C119.912 34.8964 119.6 34.7642 119.335 34.4998C119.071 34.2353 118.939 33.9228 118.939 33.5622V25.5931C118.939 24.3431 118.71 23.4176 118.254 22.8166C117.821 22.1915 117.052 21.879 115.946 21.879C114.215 21.879 112.785 22.8286 111.655 24.7277V33.5622C111.655 33.9228 111.523 34.2353 111.258 34.4998C110.994 34.7642 110.681 34.8964 110.321 34.8964C109.96 34.8964 109.647 34.7642 109.383 34.4998C109.119 34.2353 108.986 33.9228 108.986 33.5622V20.9054C108.986 20.5448 109.107 20.2323 109.347 19.9679C109.611 19.6794 109.936 19.5352 110.321 19.5352C110.681 19.5352 110.994 19.6674 111.258 19.9318C111.523 20.1963 111.655 20.5208 111.655 20.9054ZM137.906 28.1894C138.074 29.5116 138.579 30.5693 139.42 31.3626C140.286 32.1319 141.464 32.5165 142.954 32.5165C144.469 32.5165 145.755 32.2761 146.813 31.7953C147.149 31.6271 147.45 31.5429 147.714 31.5429C147.978 31.5189 148.219 31.615 148.435 31.8314C148.676 32.0477 148.796 32.2881 148.796 32.5526C148.796 33.0814 148.579 33.4541 148.147 33.6704C147.738 33.8868 147.365 34.0791 147.029 34.2474C146.692 34.4156 146.332 34.5599 145.947 34.6801C145.058 34.9205 144.024 35.0407 142.846 35.0407C140.418 35.0407 138.531 34.3676 137.185 33.0213C135.863 31.6511 135.201 29.7159 135.201 27.2158C135.201 25.0522 135.766 23.2493 136.896 21.8069C138.17 20.1963 139.961 19.3909 142.269 19.3909C144.481 19.3909 146.224 20.1362 147.498 21.6266C148.7 23.0209 149.301 24.7638 149.301 26.8552C149.301 27.2158 149.168 27.5283 148.904 27.7928C148.664 28.0572 148.351 28.1894 147.966 28.1894H137.906ZM142.269 21.6627C140.514 21.6627 139.24 22.444 138.447 24.0065C138.158 24.5594 137.978 25.2205 137.906 25.9898H146.632C146.56 24.5955 146.043 23.4897 145.082 22.6723C144.312 21.9992 143.375 21.6627 142.269 21.6627ZM165.78 32.0838C166.164 32.0838 166.477 32.216 166.717 32.4805C166.982 32.7209 167.114 33.0334 167.114 33.418C167.114 33.7786 166.982 34.0911 166.717 34.3555C166.477 34.62 166.164 34.7522 165.78 34.7522H155.286C154.758 34.7522 154.313 34.5719 153.952 34.2113C153.592 33.8507 153.411 33.406 153.411 32.8771V15.3523C153.411 14.9917 153.544 14.6792 153.808 14.4148C154.072 14.1263 154.385 13.9821 154.746 13.9821C155.106 13.9821 155.419 14.1143 155.683 14.3787C155.972 14.6431 156.116 14.9677 156.116 15.3523V32.0838H165.78ZM169.999 20.9054C169.999 20.4968 170.131 20.1722 170.395 19.9318C170.66 19.6674 170.984 19.5352 171.369 19.5352C171.753 19.5352 172.066 19.6674 172.306 19.9318C172.547 20.1722 172.667 20.4968 172.667 20.9054V33.5622C172.667 33.9228 172.547 34.2353 172.306 34.4998C172.066 34.7642 171.753 34.8964 171.369 34.8964C170.984 34.8964 170.66 34.7642 170.395 34.4998C170.131 34.2353 169.999 33.9228 169.999 33.5622V20.9054ZM172.955 14.9917V15.0999C172.955 15.5326 172.811 15.8932 172.523 16.1817C172.234 16.4701 171.874 16.6144 171.441 16.6144H171.261C170.828 16.6144 170.467 16.4701 170.179 16.1817C169.914 15.8932 169.782 15.5326 169.782 15.0999V14.9917C169.782 14.559 169.926 14.1984 170.215 13.9099C170.503 13.6215 170.852 13.4772 171.261 13.4772H171.441C171.874 13.4772 172.234 13.6215 172.523 13.9099C172.811 14.1984 172.955 14.559 172.955 14.9917ZM182.259 32.5526C184.446 32.5526 185.528 31.8674 185.504 30.4972C185.504 30.0645 185.288 29.7279 184.855 29.4875C184.422 29.2471 183.881 29.0428 183.232 28.8745C182.583 28.7063 181.874 28.526 181.105 28.3336C180.336 28.1413 179.614 27.8769 178.941 27.5403C178.268 27.2038 177.715 26.7711 177.283 26.2422C176.85 25.6893 176.634 25.0162 176.634 24.2229C176.634 23.4296 176.754 22.7565 176.994 22.2036C177.235 21.6266 177.595 21.1338 178.076 20.7251C179.11 19.8357 180.552 19.3909 182.403 19.3909C183.893 19.3909 185.324 19.6313 186.694 20.1121C186.958 20.2083 187.163 20.3766 187.307 20.617C187.475 20.8333 187.559 21.0737 187.559 21.3381C187.559 21.5785 187.439 21.8189 187.199 22.0593C186.983 22.2997 186.766 22.4199 186.55 22.4199C186.333 22.4199 186.069 22.3718 185.757 22.2757C184.819 21.9872 183.785 21.843 182.655 21.843C181.526 21.843 180.672 22.0353 180.095 22.4199C179.518 22.8046 179.23 23.2853 179.23 23.8623C179.23 24.4152 179.446 24.8239 179.879 25.0883C180.312 25.3287 180.852 25.5451 181.502 25.7374C182.175 25.9297 182.896 26.11 183.665 26.2783C184.458 26.4465 185.18 26.699 185.829 27.0355C187.367 27.8288 188.136 29.0428 188.136 30.6775C188.136 31.9516 187.656 32.9733 186.694 33.7425C185.684 34.608 184.254 35.0407 182.403 35.0407C180.432 35.0407 178.653 34.5959 177.066 33.7065C176.73 33.4661 176.549 33.1776 176.525 32.841C176.525 32.4805 176.634 32.18 176.85 31.9396C177.09 31.6751 177.331 31.5429 177.571 31.5429C177.811 31.5429 178.124 31.6271 178.509 31.7953C179.638 32.3002 180.889 32.5526 182.259 32.5526ZM197.079 32.6608C197.608 32.6608 197.981 32.6247 198.197 32.5526C198.437 32.4564 198.69 32.4083 198.954 32.4083C199.219 32.4083 199.459 32.5165 199.675 32.7329C199.892 32.9252 200 33.2257 200 33.6344C200 34.019 199.808 34.2954 199.423 34.4637C198.582 34.8483 197.86 35.0407 197.259 35.0407C196.658 35.0407 196.106 35.0166 195.601 34.9685C195.12 34.8964 194.651 34.7282 194.194 34.4637C193.113 33.8387 192.572 32.7329 192.572 31.1463V21.9872H190.48C190.12 21.9872 189.927 21.7949 189.903 21.4103C189.903 21.242 189.999 21.0857 190.192 20.9415L194.194 17.011C194.363 16.8428 194.531 16.7586 194.699 16.7586C194.867 16.7346 195 16.7827 195.096 16.9029C195.192 17.0231 195.24 17.1673 195.24 17.3356V19.6794H198.594C198.93 19.6794 199.207 19.7876 199.423 20.004C199.639 20.2203 199.748 20.4968 199.748 20.8333C199.748 21.1699 199.639 21.4463 199.423 21.6627C199.207 21.879 198.93 21.9872 198.594 21.9872H195.24V30.9299C195.24 31.6751 195.468 32.18 195.925 32.4444C196.166 32.5886 196.55 32.6608 197.079 32.6608Z" fill="#646978"/>
</svg>
